<?xml version="1.0" standalone="no"?>
<!DOCTYPE svg PUBLIC "-//W3C//DTD SVG 20010904//EN"
 "http://www.w3.org/TR/2001/REC-SVG-20010904/DTD/svg10.dtd">
<svg version="1.0" xmlns="http://www.w3.org/2000/svg"
 width="500.000000pt" height="500.000000pt" viewBox="0 0 500.000000 500.000000"
 preserveAspectRatio="xMidYMid meet">
<metadata>
Created by potrace 1.14, written by Peter Selinger 2001-2017
</metadata>
<g transform="translate(0.000000,500.000000) scale(0.100000,-0.100000)"
fill="#000000" stroke="none">
<path d="M1456 3084 c-147 -416 -265 -758 -262 -761 13 -13 29 22 96 212 l73
205 325 -2 324 -3 49 -135 c27 -74 60 -168 75 -207 l26 -73 144 0 c79 0 144 1
144 3 0 1 -128 342 -284 757 l-284 755 -79 3 -79 3 -268 -757z m274 444 c32
-101 219 -629 266 -752 6 -14 -26 -16 -304 -16 -171 0 -313 3 -315 8 -3 5 304
892 309 892 1 0 21 -60 44 -132z"/>
<path d="M2833 3091 c-184 -50 -292 -154 -329 -318 -32 -144 -6 -288 71 -392
l45 -61 267 0 268 0 -130 65 c-207 102 -270 162 -301 285 -32 127 1 277 74
342 78 68 194 93 295 64 121 -35 174 -126 192 -329 l8 -79 46 7 c57 8 118 41
145 78 34 46 29 134 -10 189 -39 56 -122 113 -204 140 -96 31 -335 36 -437 9z"/>
<path d="M1178 2228 c-3 -7 -2 -38 2 -68 l7 -55 2 68 c1 65 -2 80 -11 55z"/>
<path d="M3028 2168 c10 -12 11 -22 3 -37 -15 -27 -14 -36 3 -22 11 9 15 9 19
-1 2 -7 4 -1 4 14 0 15 -9 35 -21 45 -17 15 -19 15 -8 1z"/>
<path d="M2870 2161 c0 -6 4 -13 10 -16 6 -3 7 1 4 9 -7 18 -14 21 -14 7z"/>
<path d="M2299 2133 c-12 -16 -12 -17 2 -6 9 7 20 9 24 5 5 -4 5 -1 1 6 -9 16
-11 15 -27 -5z"/>
<path d="M4019 2132 c-13 -15 -12 -16 3 -4 13 10 17 10 21 0 4 -9 6 -9 6 -1 2
20 -16 24 -30 5z"/>
<path d="M2920 2095 c19 -19 36 -35 39 -35 3 0 -10 16 -29 35 -19 19 -36 35
-39 35 -3 0 10 -16 29 -35z"/>
<path d="M2300 2080 c-7 -16 -16 -27 -21 -24 -5 3 -9 -4 -9 -16 0 -12 -4 -18
-10 -15 -5 3 -7 0 -4 -8 6 -15 -23 -44 -33 -33 -4 4 -2 16 5 27 12 19 12 20
-13 3 -14 -9 -25 -19 -25 -22 0 -3 3 -2 7 1 3 4 12 -1 19 -11 12 -16 14 -16
35 5 21 21 23 21 36 5 13 -15 13 -14 3 5 -8 18 -6 31 10 64 12 22 19 43 17 45
-2 3 -10 -9 -17 -26z"/>
<path d="M1270 2054 c0 -19 4 -33 8 -30 8 5 4 66 -4 66 -2 0 -4 -16 -4 -36z"/>
<path d="M1577 2045 c-10 -61 -9 -81 4 -68 6 6 18 9 25 6 10 -4 12 0 8 11 -4
10 -1 16 7 16 7 0 9 3 6 6 -4 4 -13 1 -22 -6 -20 -16 -29 -7 -17 17 5 10 6 27
2 38 -5 15 -8 11 -13 -20z"/>
<path d="M3011 2065 c-1 -11 -4 -38 -7 -60 -5 -32 -4 -38 6 -28 7 6 19 9 26 6
10 -4 12 0 8 11 -4 10 -1 16 7 16 7 0 9 3 6 6 -4 4 -13 1 -22 -6 -20 -16 -29
-7 -17 17 5 10 6 27 1 38 l-8 20 0 -20z"/>
<path d="M1093 2055 c6 -7 15 -11 20 -8 13 8 7 19 -13 20 -16 1 -17 -1 -7 -12z"/>
<path d="M2410 2038 c0 -19 2 -20 10 -8 13 19 13 30 0 30 -5 0 -10 -10 -10
-22z"/>
<path d="M3170 2033 c0 -29 12 -24 17 7 2 11 -2 20 -7 20 -6 0 -10 -12 -10
-27z"/>
<path d="M3990 2040 c0 -9 -6 -22 -12 -29 -11 -10 -10 -11 3 -6 23 9 42 52 23
52 -8 0 -14 -8 -14 -17z"/>
<path d="M1750 2035 c-19 -23 -8 -25 14 -4 11 11 15 19 9 19 -6 0 -16 -7 -23
-15z"/>
<path d="M1173 2029 c9 -5 17 -18 18 -27 0 -14 2 -13 8 3 9 21 -3 35 -29 35
-12 -1 -11 -3 3 -11z"/>
<path d="M1410 2019 c-18 -15 -19 -18 -5 -11 11 5 25 7 32 5 6 -2 14 1 18 6 4
7 0 8 -11 4 -12 -4 -15 -3 -10 5 10 17 5 15 -24 -9z"/>
<path d="M2583 2023 c-18 -12 -21 -19 -12 -35 10 -19 12 -19 30 -2 16 14 21
15 36 3 17 -13 17 -13 3 6 -8 11 -16 22 -17 24 -2 3 -11 -6 -20 -18 -12 -18
-17 -20 -24 -10 -5 9 1 19 19 31 15 10 23 18 17 17 -5 0 -20 -7 -32 -16z"/>
<path d="M2852 2028 c-15 -15 -16 -35 -2 -43 6 -3 7 1 4 10 -4 8 -1 22 6 30
15 18 9 20 -8 3z"/>
<path d="M3380 2030 c22 -6 23 -8 7 -15 -12 -5 -15 -11 -7 -20 5 -6 7 -14 4
-17 -2 -3 2 -8 10 -11 10 -4 13 -1 9 8 -3 9 4 19 18 25 22 10 22 10 -5 5 -25
-5 -28 -4 -18 8 14 17 6 27 -22 26 -18 -1 -18 -2 4 -9z"/>
<path d="M3825 2022 c-11 -9 -18 -16 -16 -15 2 2 10 -5 18 -15 8 -9 12 -11 8
-5 -3 7 -1 22 5 33 13 24 11 25 -15 2z"/>
<path d="M1067 2005 c-15 -14 -24 -25 -19 -25 5 0 19 11 32 25 30 32 23 32
-13 0z"/>
<path d="M1864 2016 c-19 -15 -19 -15 0 -12 11 2 22 8 24 14 5 16 0 15 -24 -2z"/>
<path d="M2447 2010 c8 -30 21 -34 15 -5 -2 14 -8 25 -12 25 -5 0 -6 -9 -3
-20z"/>
<path d="M2971 2014 c0 -11 3 -14 6 -6 3 7 2 16 -1 19 -3 4 -6 -2 -5 -13z"/>
<path d="M3208 2023 c7 -3 16 -2 19 1 4 3 -2 6 -13 5 -11 0 -14 -3 -6 -6z"/>
<path d="M3329 2013 c-13 -16 -12 -17 4 -4 16 13 21 21 13 21 -2 0 -10 -8 -17
-17z"/>
<path d="M3650 2019 c-9 -5 -10 -9 -3 -9 7 0 9 -9 6 -22 -7 -26 -1 -23 16 9
12 25 2 36 -19 22z"/>
<path d="M1791 2006 c-1 -14 -7 -17 -26 -14 -13 3 -22 1 -19 -3 3 -5 22 -9 42
-9 20 0 32 4 26 8 -6 4 -14 14 -17 22 -4 11 -6 11 -6 -4z"/>
<path d="M1893 1994 c-12 -13 -18 -24 -13 -24 4 0 13 7 20 15 10 12 16 13 27
4 20 -17 23 -7 4 13 -15 15 -18 15 -38 -8z"/>
<path d="M2036 2012 c-2 -4 -1 -14 3 -21 6 -9 11 -10 15 -2 4 6 2 11 -4 11 -6
0 -8 5 -5 10 3 6 4 10 1 10 -3 0 -7 -4 -10 -8z"/>
<path d="M2075 2010 c-3 -6 1 -7 9 -4 18 7 21 14 7 14 -6 0 -13 -4 -16 -10z"/>
<path d="M2715 1999 c-16 -10 -25 -19 -19 -19 7 0 22 9 35 20 30 24 23 24 -16
-1z"/>
<path d="M3480 2009 c-13 -9 -13 -10 2 -5 10 3 18 -1 21 -12 3 -12 5 -11 6 6
1 24 -6 27 -29 11z"/>
<path d="M3549 2006 c-1 -6 -1 -15 0 -20 1 -4 -4 -14 -10 -22 -9 -12 -9 -13 4
-9 8 4 17 15 20 26 3 10 16 23 29 28 21 8 20 9 -9 9 -18 -1 -34 -6 -34 -12z"/>
<path d="M4013 2008 c-28 -14 -29 -24 -4 -24 11 0 18 4 15 8 -2 4 4 11 13 17
24 14 4 13 -24 -1z"/>
<path d="M1280 2004 c0 -18 27 -36 47 -31 14 4 14 5 -4 6 -12 0 -27 9 -32 19
-6 9 -11 12 -11 6z"/>
<path d="M1540 2000 c-9 -6 -10 -10 -3 -10 6 0 15 5 18 10 8 12 4 12 -15 0z"/>
<path d="M1710 2000 c-9 -6 -10 -10 -3 -10 6 0 15 5 18 10 8 12 4 12 -15 0z"/>
<path d="M3140 2000 c-9 -6 -10 -10 -3 -10 6 0 15 5 18 10 8 12 4 12 -15 0z"/>
<path d="M3210 2001 c0 -10 19 -25 25 -20 1 2 -3 10 -11 17 -8 7 -14 8 -14 3z"/>
<path d="M1360 1990 c-9 -6 -10 -10 -3 -10 6 0 15 5 18 10 8 12 4 12 -15 0z"/>
<path d="M2117 1989 c7 -7 15 -10 18 -7 3 3 -2 9 -12 12 -14 6 -15 5 -6 -5z"/>
<path d="M3689 1989 c-10 -6 -4 -9 19 -9 17 0 32 2 32 4 0 9 -39 13 -51 5z"/>
<path d="M2498 1983 c7 -3 16 -2 19 1 4 3 -2 6 -13 5 -11 0 -14 -3 -6 -6z"/>
<path d="M3258 1983 c7 -3 16 -2 19 1 4 3 -2 6 -13 5 -11 0 -14 -3 -6 -6z"/>
<path d="M1453 1973 c9 -2 23 -2 30 0 6 3 -1 5 -18 5 -16 0 -22 -2 -12 -5z"/>
<path d="M2318 1973 c7 -3 16 -2 19 1 4 3 -2 6 -13 5 -11 0 -14 -3 -6 -6z"/>
<path d="M2888 1973 c12 -2 32 -2 45 0 12 2 2 4 -23 4 -25 0 -35 -2 -22 -4z"/>
<path d="M3868 1973 c6 -2 18 -2 25 0 6 3 1 5 -13 5 -14 0 -19 -2 -12 -5z"/>
<path d="M3631 1927 c-7 -21 -10 -41 -7 -44 8 -8 28 47 23 66 -2 9 -9 -1 -16
-22z"/>
<path d="M2501 1795 c-38 -44 -45 -70 -38 -151 11 -138 129 -247 314 -288 91
-20 303 -21 396 -1 229 48 377 203 401 418 l6 57 -125 0 -125 0 7 -27 c11 -42
7 -172 -6 -220 -40 -145 -188 -235 -362 -220 -184 15 -284 143 -305 390 l-7
77 -62 0 c-59 0 -65 -2 -94 -35z"/>
</g>
</svg>
